<?xml version="1.0" standalone="no"?>
<!DOCTYPE svg PUBLIC "-//W3C//DTD SVG 20010904//EN"
 "http://www.w3.org/TR/2001/REC-SVG-20010904/DTD/svg10.dtd">
<svg version="1.0" xmlns="http://www.w3.org/2000/svg"
 width="3000.000000pt" height="2000.000000pt" viewBox="0 0 3000.000000 2000.000000"
 preserveAspectRatio="xMidYMid meet">

<g transform="translate(0.000000,2000.000000) scale(0.100000,-0.100000)"
fill="#000000" stroke="none">
<path d="M12392 18878 c-43 -36 -55 -54 -76 -113 -13 -38 -40 -106 -60 -150
-42 -95 -93 -277 -112 -395 -14 -91 -37 -165 -104 -330 -54 -133 -110 -296
-110 -319 0 -15 -12 -19 -70 -25 -77 -7 -182 -41 -236 -77 -43 -29 -98 -110
-136 -200 -35 -84 -36 -97 -13 -188 14 -57 15 -78 6 -92 -29 -47 9 -173 70
-230 l32 -30 -18 -40 c-28 -61 -58 -81 -114 -73 -92 12 -182 -38 -236 -131
-21 -34 -68 -72 -248 -197 -122 -86 -277 -189 -344 -229 -108 -65 -147 -99
-113 -99 6 0 10 -4 10 -10 0 -17 -418 -220 -538 -262 -149 -51 -200 -77 -427
-219 l-190 -118 -111 6 c-126 7 -187 -4 -246 -43 -22 -14 -52 -24 -73 -24 -26
0 -41 -7 -61 -29 -14 -16 -37 -32 -50 -35 -18 -5 -33 -23 -55 -69 -16 -34 -29
-67 -29 -74 0 -21 33 -33 55 -20 20 11 25 13 56 15 9 1 22 16 29 32 14 34 27
36 91 16 24 -8 106 -17 183 -20 155 -6 186 1 227 52 22 28 39 34 219 76 107
25 251 54 320 66 182 30 213 41 345 128 179 117 231 146 331 187 l91 37 47
-36 c26 -20 53 -36 60 -36 7 0 49 33 94 74 72 65 90 76 149 91 38 10 72 18 77
19 4 1 17 -24 27 -54 11 -30 33 -71 49 -92 35 -43 50 -78 50 -118 0 -16 11
-42 25 -58 16 -19 29 -53 36 -89 6 -32 18 -64 26 -70 15 -12 15 -15 -3 -34
-14 -16 -19 -36 -19 -89 0 -84 -13 -105 -114 -176 -138 -98 -178 -151 -210
-276 -11 -42 -35 -109 -55 -150 -29 -61 -50 -87 -117 -148 -45 -41 -88 -88
-95 -106 -7 -17 -36 -48 -64 -68 -28 -20 -171 -155 -318 -300 -387 -381 -415
-406 -461 -406 -35 0 -40 4 -85 69 -54 80 -112 136 -180 176 -56 33 -223 93
-362 130 -104 28 -334 131 -334 149 0 6 5 46 12 88 10 67 9 82 -6 122 -18 48
-19 48 -118 70 -15 3 -30 15 -33 26 -8 25 -37 26 -60 0 -37 -41 -101 -52 -290
-48 -169 3 -178 4 -195 26 -24 29 -44 28 -70 -5 -20 -25 -28 -28 -83 -28 -34
0 -70 4 -80 9 -13 6 -20 2 -30 -22 -7 -16 -35 -48 -63 -70 -28 -22 -56 -54
-63 -71 -27 -63 10 -131 77 -145 15 -3 87 -13 161 -21 163 -18 214 -38 230
-88 15 -43 35 -51 105 -43 47 6 61 3 126 -29 41 -19 82 -35 92 -35 9 0 22 -8
27 -18 5 -10 57 -41 116 -71 81 -40 124 -69 178 -121 40 -37 142 -127 227
-199 155 -132 263 -198 349 -216 19 -4 70 -34 114 -67 141 -104 157 -109 319
-97 l123 10 320 159 c176 87 367 177 424 199 l104 41 38 -35 c55 -50 79 -53
131 -17 104 72 331 203 338 195 4 -4 31 -44 61 -88 30 -43 78 -103 107 -132
32 -33 59 -71 70 -100 16 -46 21 -50 102 -90 106 -52 139 -59 177 -39 l30 15
59 -61 c32 -33 106 -101 163 -150 117 -101 158 -145 251 -268 36 -47 78 -96
94 -110 39 -32 66 -94 66 -152 0 -127 53 -448 92 -557 39 -110 144 -352 246
-566 74 -154 83 -181 102 -290 12 -66 30 -133 40 -150 23 -38 44 -113 65 -237
15 -88 20 -101 48 -124 72 -61 177 -89 256 -67 20 5 22 11 18 38 l-5 31 46 0
47 -1 0 37 c0 37 1 38 150 137 83 55 170 109 195 121 112 55 230 159 230 204
0 28 -35 68 -81 92 -29 15 -72 19 -289 26 -140 4 -274 10 -297 14 l-43 6 -20
72 c-12 39 -27 91 -35 116 -43 139 -80 302 -116 515 -58 346 -70 394 -140 555
-63 145 -63 145 -69 265 -8 138 -15 157 -108 278 -45 59 -68 102 -93 170 -139
393 -166 459 -288 706 -72 145 -140 293 -152 330 -26 78 -62 154 -96 198 l-25
32 25 76 c14 42 37 88 50 104 20 24 25 47 35 142 8 85 18 134 41 190 47 118
54 166 47 319 -4 74 -13 268 -21 430 -18 378 -31 446 -137 729 -44 117 -88
233 -99 257 l-19 45 30 75 30 75 0 229 0 230 -30 66 -30 67 30 266 c16 146 44
353 62 459 l32 193 46 33 c29 21 59 55 78 89 19 34 56 76 94 108 115 94 118
97 118 129 0 17 -1 30 -3 30 -2 0 -42 -20 -90 -45 -86 -44 -128 -54 -156 -36
-11 7 2 17 47 40 52 26 62 35 62 57 0 25 -2 26 -37 19 l-38 -7 45 41 c43 39
44 41 26 56 -26 20 -42 19 -82 -6 -42 -26 -42 -19 -3 42 30 47 35 79 13 86 -6
2 -34 -16 -62 -39z"/>
<path d="M26478 18723 c-37 -6 -192 -86 -375 -195 -84 -49 -153 -91 -153 -92
0 -1 7 -27 16 -57 17 -58 27 -69 61 -69 22 0 22 0 16 -132 l-6 -131 35 -31
c36 -31 36 -31 28 -86 -16 -105 -13 -126 18 -139 22 -9 32 -26 52 -83 13 -40
41 -93 62 -120 l38 -47 92 -3 92 -3 9 -38 c8 -33 6 -42 -14 -64 -31 -32 -83
-59 -167 -84 -126 -39 -215 -98 -267 -177 -49 -76 -219 -618 -267 -851 l-33
-163 -70 -86 c-62 -76 -212 -223 -581 -568 -110 -103 -112 -104 -185 -119 -41
-9 -125 -39 -188 -68 -101 -46 -118 -58 -157 -107 -51 -64 -66 -106 -57 -166
5 -41 8 -44 37 -44 34 0 67 -33 105 -108 24 -48 26 -48 81 -26 39 16 40 17 40
64 0 29 6 54 15 63 8 8 46 22 85 31 40 9 92 25 117 36 41 18 48 26 81 101 l37
81 210 105 c277 139 308 159 490 322 179 159 193 176 220 264 23 76 28 84 56
92 29 9 35 19 70 115 l39 105 -4 -115 c-3 -98 -9 -136 -44 -258 -37 -129 -58
-216 -76 -323 -4 -20 -24 -59 -45 -87 -28 -39 -40 -65 -44 -104 -4 -28 -12
-57 -19 -64 -14 -14 -198 -86 -328 -129 -104 -34 -301 -131 -475 -235 -134
-79 -236 -134 -315 -169 -93 -42 -180 -141 -180 -207 0 -39 35 -211 56 -279
16 -51 72 -166 309 -647 145 -293 157 -327 241 -693 25 -110 47 -207 50 -217
3 -12 -5 -19 -31 -28 -31 -10 -35 -15 -35 -46 0 -19 -6 -67 -14 -107 -8 -40
-17 -103 -21 -142 -12 -139 -26 -167 -134 -279 -116 -119 -171 -190 -171 -218
0 -11 16 -36 35 -55 30 -30 39 -34 67 -28 58 11 262 76 299 96 20 10 117 88
215 175 98 86 213 181 254 212 173 129 190 149 190 229 0 114 0 115 -149 238
-93 79 -139 111 -147 104 -8 -7 -13 10 -18 63 -14 148 -68 555 -82 628 -30
148 -198 628 -241 693 -14 20 -23 40 -20 43 8 8 321 32 329 25 4 -3 3 -47 -2
-96 -5 -50 -10 -142 -10 -205 l0 -115 59 -55 c42 -39 83 -65 142 -91 l84 -36
7 -44 c4 -24 14 -150 23 -281 9 -130 25 -276 35 -325 10 -48 23 -131 30 -183
11 -93 69 -349 229 -1014 l79 -328 -29 -62 c-16 -33 -29 -74 -29 -91 0 -38
-23 -76 -93 -151 -43 -46 -81 -74 -156 -113 -54 -29 -109 -63 -122 -77 -20
-21 -21 -27 -11 -62 7 -21 23 -49 37 -62 l24 -23 238 47 c332 66 487 103 532
125 39 21 101 83 101 103 0 6 -14 71 -32 144 -30 126 -33 133 -63 147 l-32 15
-21 149 c-60 407 -64 449 -66 738 l-2 280 -28 75 c-16 41 -44 108 -63 150
l-34 75 16 330 17 330 28 30 c25 26 31 46 49 160 38 235 113 606 125 616 6 5
50 29 98 53 110 55 192 110 240 160 48 49 64 100 122 396 35 174 55 252 81
311 81 185 131 362 179 639 30 173 39 207 82 303 26 59 51 104 54 100 4 -5 17
-46 30 -93 33 -120 44 -140 80 -140 l30 0 0 -367 c0 -522 -29 -754 -109 -874
-58 -87 -65 -115 -50 -202 7 -39 13 -122 13 -184 1 -127 9 -144 49 -113 l27
21 0 -66 0 -67 28 7 c30 9 43 9 88 -1 30 -6 35 -2 75 53 23 32 54 69 67 83 53
54 55 74 27 263 -25 170 -25 174 -9 307 21 188 62 463 80 540 17 70 33 394 34
663 0 150 -2 169 -40 338 -57 251 -95 379 -134 457 -41 81 -155 243 -264 373
-91 110 -109 121 -294 174 -193 56 -220 69 -285 139 -32 34 -66 80 -77 103
-18 41 -18 42 8 171 28 140 31 216 16 357 -15 137 -42 216 -87 255 -40 35
-113 71 -183 90 -24 6 -55 20 -69 30 -30 22 -64 29 -103 23z"/>
<path d="M5170 18359 c-70 -12 -164 -56 -215 -102 -83 -73 -145 -219 -145
-343 0 -74 30 -198 69 -280 26 -55 28 -67 20 -110 -5 -27 -11 -64 -14 -81 -5
-26 -11 -33 -28 -33 -39 0 -170 -40 -222 -68 -61 -33 -256 -226 -308 -304 -45
-68 -110 -226 -137 -334 -13 -50 -20 -110 -20 -170 0 -51 -6 -123 -14 -161 -8
-37 -24 -124 -36 -193 -11 -69 -41 -233 -67 -365 -43 -227 -50 -248 -110 -390
-58 -134 -194 -417 -232 -485 -8 -14 -17 -54 -19 -90 -4 -59 -8 -69 -45 -110
-58 -66 -104 -169 -116 -265 -6 -44 -28 -246 -50 -450 -41 -389 -155 -1114
-175 -1120 -6 -2 -54 -13 -106 -25 -120 -28 -245 -85 -337 -156 -87 -67 -231
-216 -368 -381 l-100 -121 -35 18 c-52 26 -94 32 -139 20 -71 -19 -107 -89
-134 -257 -12 -68 -30 -122 -82 -238 -77 -172 -88 -222 -74 -361 19 -210 62
-311 158 -375 63 -41 95 -39 144 13 57 60 150 188 177 243 23 47 23 47 5 129
l-17 83 55 135 c31 75 77 171 104 214 57 93 22 73 560 321 223 104 381 170
439 186 115 31 126 37 165 92 17 24 49 56 71 70 35 23 53 55 168 286 112 225
140 291 202 480 l72 220 67 50 c73 54 248 232 301 305 l32 44 42 -41 c23 -23
73 -88 110 -145 74 -114 72 -112 221 -144 50 -11 60 -19 254 -218 110 -113
205 -217 210 -230 17 -44 -1 -111 -48 -185 -104 -160 -159 -307 -218 -582 -47
-220 -140 -598 -172 -699 -14 -43 -50 -133 -80 -200 -44 -95 -68 -134 -114
-184 -79 -84 -119 -155 -119 -210 0 -100 63 -165 196 -201 139 -38 180 -57
292 -137 l104 -74 127 3 c134 4 191 20 191 55 0 26 -57 106 -155 216 -57 63
-94 115 -106 147 -25 64 -49 206 -49 283 0 79 28 139 218 458 78 130 154 263
170 295 57 112 208 538 241 678 11 44 48 159 82 255 47 132 62 187 61 223 -5
133 -136 596 -212 747 -15 31 -40 94 -54 140 -25 82 -30 90 -146 222 l-121
137 7 48 c9 74 -10 131 -59 173 -22 19 -67 60 -99 91 l-58 56 0 138 0 137 37
-7 c54 -10 89 -30 120 -72 93 -121 113 -134 265 -164 74 -15 119 -31 159 -55
64 -39 89 -42 113 -15 16 17 14 20 -39 56 -30 21 -55 39 -55 41 0 1 55 -17
123 -40 99 -35 132 -42 175 -38 28 2 52 8 52 12 0 5 11 21 25 36 14 15 25 33
25 41 0 8 -27 43 -61 78 -48 50 -73 68 -118 83 -59 20 -141 66 -141 80 0 4 39
15 86 24 48 9 91 21 96 26 6 6 8 22 4 36 -6 25 -7 25 -104 23 -125 -3 -402 20
-468 39 -83 23 -254 111 -254 130 0 9 11 46 24 83 16 45 25 100 30 171 6 105
6 105 80 260 110 229 116 251 109 401 l-5 124 60 94 c68 104 88 171 78 255
-12 86 -38 126 -121 186 -49 36 -74 60 -71 70 21 68 48 127 83 181 23 35 47
76 54 92 7 15 20 27 31 27 21 0 22 7 18 107 -2 69 1 78 45 170 36 73 47 108
47 142 0 84 -90 293 -167 387 -84 102 -341 174 -515 143z"/>
<path d="M16455 18361 c-215 -35 -396 -199 -450 -406 -19 -74 -19 -213 0 -284
34 -128 113 -240 222 -314 94 -65 167 -88 288 -94 171 -9 296 39 415 157 112
111 165 240 164 402 -2 288 -226 523 -516 542 -40 2 -95 1 -123 -3z"/>
<path d="M25186 17789 c-125 -20 -240 -112 -299 -237 -29 -61 -32 -75 -32
-168 0 -96 2 -103 38 -176 43 -88 107 -152 195 -195 52 -26 66 -28 172 -28
106 0 120 2 172 28 87 43 152 107 194 191 123 250 -27 541 -303 586 -65 11
-68 11 -137 -1z"/>
<path d="M15084 17754 c-3 -19 -4 -51 -1 -71 l6 -35 -54 51 c-48 46 -59 51
-98 51 -66 0 -75 -17 -44 -82 14 -29 36 -69 49 -88 l22 -35 -36 31 c-32 28
-40 31 -75 24 -52 -10 -70 -19 -77 -37 -9 -23 29 -77 86 -123 56 -44 56 -48 0
-24 -35 14 -38 14 -54 -7 -10 -11 -18 -36 -18 -54 0 -27 8 -40 48 -73 41 -35
293 -207 313 -214 13 -5 125 -202 301 -528 262 -483 302 -540 624 -872 118
-121 214 -224 214 -229 0 -4 75 -76 168 -160 364 -331 438 -420 572 -689 60
-121 119 -212 358 -555 279 -399 407 -539 710 -769 34 -26 80 -71 102 -100 39
-51 135 -205 142 -228 3 -8 19 -6 53 5 27 10 52 17 56 17 16 0 112 -134 184
-258 l77 -132 131 -104 c332 -260 600 -448 802 -561 153 -85 423 -216 589
-286 71 -30 241 -109 378 -176 137 -68 261 -123 275 -123 15 0 65 18 111 41
72 35 89 49 129 102 25 34 50 72 55 83 8 17 35 27 137 52 133 33 341 52 562
52 102 0 106 1 131 28 65 69 65 116 1 180 -63 63 -202 148 -282 172 -81 26
-239 27 -343 3 -40 -9 -86 -17 -103 -16 -16 0 -85 23 -152 51 -66 29 -136 52
-155 52 -38 0 -95 -28 -153 -75 l-40 -32 -142 136 -142 136 -23 165 -23 165
-51 3 -50 3 -28 56 c-15 30 -25 58 -22 60 3 3 117 9 253 14 136 5 294 11 349
15 l101 6 14 40 c7 23 22 44 33 49 26 10 187 42 191 37 1 -2 17 -28 34 -60
l32 -56 -75 -36 c-94 -45 -146 -93 -146 -132 0 -39 47 -119 105 -176 44 -45
56 -51 198 -95 l152 -48 117 -112 c66 -63 129 -115 145 -119 15 -4 86 -8 158
-8 l130 -1 3 40 c2 22 -2 64 -8 94 -11 48 -22 63 -120 165 -82 84 -113 124
-128 162 -10 28 -33 72 -50 97 -18 25 -32 51 -32 58 0 14 36 77 87 156 24 37
37 71 43 115 6 37 17 72 30 87 55 68 88 209 61 260 -18 33 -113 91 -334 202
-238 120 -442 214 -510 234 -97 29 -313 39 -547 26 l-215 -12 -162 35 c-101
23 -188 36 -232 36 -83 0 -142 20 -234 78 -34 22 -95 55 -134 75 -67 33 -146
89 -235 166 -36 32 -102 150 -152 273 -9 23 -30 46 -55 63 -28 17 -49 42 -65
75 -13 27 -34 65 -46 86 l-23 36 24 -12 c13 -7 47 -28 74 -47 40 -26 67 -35
135 -44 60 -8 120 -26 205 -61 80 -33 128 -47 145 -44 86 19 168 27 345 34
l200 9 304 111 c167 62 311 112 321 112 25 0 123 68 208 144 64 58 77 66 113
66 42 0 44 3 72 81 5 15 15 13 87 -12 45 -16 86 -29 91 -29 5 0 17 15 25 34
16 32 15 38 -6 107 -46 153 -72 182 -194 213 -54 14 -61 14 -122 -6 -39 -13
-173 -86 -332 -180 -146 -87 -282 -163 -302 -168 -181 -48 -752 -50 -842 -4
-18 9 -82 48 -143 87 -60 38 -124 76 -141 83 -16 7 -73 43 -125 81 -323 232
-413 261 -827 270 l-243 6 -64 49 c-36 27 -65 55 -65 63 0 7 6 42 14 77 20 84
35 286 25 321 -14 49 -96 152 -151 190 -61 42 -124 65 -263 97 -89 21 -105 22
-176 11 -203 -31 -261 -78 -277 -224 -7 -58 -9 -63 -49 -90 -24 -15 -43 -35
-43 -43 0 -21 29 -74 40 -74 6 0 10 -26 10 -58 0 -32 7 -84 15 -115 19 -72 20
-146 2 -153 -7 -2 -46 7 -86 21 -41 14 -84 25 -96 25 -29 0 -79 38 -206 157
-59 54 -132 116 -164 137 -61 41 -190 100 -295 135 l-65 21 -84 148 c-46 81
-181 305 -301 497 -119 193 -220 355 -223 362 -4 6 14 71 39 145 46 130 48
135 117 205 67 69 70 73 64 109 -8 50 -36 87 -75 98 -43 12 -106 -27 -198
-121 -70 -71 -73 -73 -121 -73 l-49 0 -78 168 c-76 165 -79 169 -122 190 -67
33 -92 30 -100 -14z"/>
<path d="M6120 11515 c-143 -39 -263 -124 -344 -242 -256 -376 -7 -888 449
-920 280 -20 542 171 611 446 22 90 15 254 -14 335 -63 172 -198 308 -365 366
-83 29 -258 37 -337 15z"/>
<path d="M12285 11310 c-203 -43 -378 -208 -430 -406 -23 -86 -21 -234 4 -314
58 -187 214 -337 401 -385 96 -25 252 -17 344 19 166 63 281 186 342 366 28
83 26 253 -4 342 -58 168 -188 299 -358 359 -66 24 -229 34 -299 19z"/>
<path d="M17016 9274 c-140 -34 -273 -141 -338 -271 -160 -320 41 -698 394
-743 222 -27 430 85 528 284 85 172 73 358 -35 520 -116 174 -340 261 -549
210z"/>
<path d="M10110 8989 c-118 -23 -260 -130 -313 -235 -64 -126 -74 -274 -27
-397 97 -256 397 -375 646 -256 117 55 207 159 245 280 24 76 25 205 3 280
-69 235 -308 376 -554 328z"/>
<path d="M24855 8927 c-181 -61 -246 -179 -246 -447 l0 -136 -39 -60 -38 -61
-188 -7 c-126 -4 -206 -3 -245 5 -98 19 -119 7 -270 -167 -48 -56 -108 -113
-133 -128 -24 -14 -64 -48 -88 -75 -49 -54 -72 -115 -173 -451 l-56 -185 -10
-260 c-9 -247 -11 -265 -41 -364 l-31 -103 31 -209 c32 -225 54 -293 102 -316
14 -6 43 -19 65 -30 22 -10 41 -19 43 -20 2 0 -18 -30 -43 -65 -63 -85 -80
-121 -93 -196 -9 -49 -22 -78 -57 -128 -65 -91 -105 -170 -105 -209 0 -19 -18
-104 -40 -189 l-40 -155 0 -208 c0 -114 -5 -245 -11 -290 -15 -101 -3 -259 46
-651 34 -269 34 -276 16 -296 -29 -33 -32 -54 -21 -140 6 -44 17 -155 25 -246
15 -180 36 -268 103 -431 48 -117 97 -195 134 -210 39 -16 174 -7 215 15 18 9
39 27 47 39 24 35 48 201 44 298 l-3 86 -62 92 c-66 97 -67 101 -83 256 -6 55
-24 152 -41 215 -34 127 -34 118 -3 458 11 119 25 204 55 318 35 139 47 211
65 394 l5 56 135 22 c162 28 266 53 328 81 53 25 65 25 133 8 71 -19 117 -52
159 -114 38 -58 65 -80 169 -143 100 -60 121 -84 146 -159 35 -109 37 -111
117 -104 l69 6 154 -111 c179 -127 315 -215 414 -265 80 -40 159 -97 260 -187
39 -34 93 -72 120 -85 89 -41 223 -197 289 -336 73 -156 277 -438 499 -691
188 -215 237 -290 288 -439 38 -114 73 -185 138 -281 27 -40 87 -145 134 -233
l85 -160 59 -24 c71 -30 201 -40 269 -21 64 18 114 67 114 113 0 43 -33 151
-68 226 -15 31 -100 144 -195 260 -207 251 -241 317 -473 891 -127 314 -171
402 -249 500 -105 130 -171 206 -272 313 -51 53 -110 120 -132 147 -50 63
-192 296 -254 415 -26 50 -96 158 -155 240 -59 83 -208 289 -331 460 -221 306
-223 310 -252 407 -28 95 -71 181 -111 225 l-20 21 38 24 c22 14 66 39 99 58
128 71 164 100 175 138 6 20 29 126 51 234 37 186 59 348 75 568 4 52 10 103
13 112 6 16 35 18 307 22 l300 5 75 -76 c104 -105 149 -133 218 -133 l56 0 35
-56 c38 -61 106 -120 174 -154 101 -49 340 -71 552 -51 120 11 122 11 179 -14
51 -23 56 -28 51 -50 -5 -21 1 -29 51 -61 l56 -36 -36 -35 c-42 -39 -46 -58
-14 -67 43 -11 59 -6 112 40 l54 45 20 -45 c20 -46 28 -51 69 -40 21 6 22 11
22 114 0 116 -15 176 -67 272 -44 81 -71 95 -224 120 -122 20 -162 33 -460
148 l-327 125 -92 113 c-181 223 -332 365 -740 693 -258 209 -295 233 -493
328 -182 88 -186 91 -197 128 -10 34 -8 50 16 127 27 88 27 89 8 105 -17 14
-22 38 -32 154 -17 185 -33 231 -97 279 -85 64 -164 90 -285 94 -69 3 -119 -1
-145 -9z m-872 -1634 c11 -18 -35 -283 -73 -419 -41 -150 -65 -277 -95 -499
-24 -179 -18 -175 -112 -76 l-80 85 -18 115 c-11 64 -18 127 -16 141 5 40 28
105 91 250 57 132 92 244 106 345 3 28 8 53 11 58 2 4 44 7 93 7 49 0 91 -3
93 -7z"/>
<path d="M20385 8903 c-27 -16 -51 -29 -53 -30 -2 -1 1 -10 7 -22 13 -23 11
-24 -179 -66 -124 -27 -196 -61 -287 -134 -108 -87 -139 -158 -152 -347 -6
-90 -6 -92 -48 -137 -51 -55 -56 -91 -18 -109 22 -10 26 -17 23 -47 l-3 -36
-175 -3 c-281 -5 -479 28 -549 91 -80 72 -170 74 -231 5 -19 -21 -72 -79 -117
-128 l-83 -88 0 -86 c0 -46 4 -87 9 -91 5 -3 15 -22 22 -43 6 -20 24 -51 38
-69 14 -17 34 -43 44 -57 26 -37 52 -32 103 19 38 37 50 43 73 39 22 -5 32 0
49 21 21 26 25 27 74 21 166 -22 306 -58 408 -106 58 -26 139 -58 179 -71 73
-22 93 -36 140 -103 8 -11 21 -49 28 -85 22 -117 17 -160 -37 -321 -27 -81
-54 -180 -60 -220 -15 -104 -61 -187 -120 -219 l-45 -24 -85 56 c-257 167
-428 229 -760 277 -139 20 -148 23 -231 71 -136 77 -269 137 -344 154 -39 9
-146 34 -239 57 l-168 40 -152 91 c-223 134 -439 241 -514 256 -120 23 -287
128 -431 270 -47 46 -73 81 -78 101 -5 27 -73 100 -94 100 -8 0 -126 181 -178
273 -18 31 -63 126 -101 210 -54 118 -75 155 -96 166 -39 20 -68 2 -90 -56
-10 -26 -26 -59 -36 -72 -22 -29 -23 -50 -3 -57 11 -5 15 -23 15 -73 0 -62 -2
-68 -31 -93 -24 -22 -30 -34 -27 -60 2 -27 8 -34 29 -36 23 -3 27 -10 47 -100
14 -63 22 -131 22 -193 0 -92 -1 -97 -25 -113 -32 -21 -35 -75 -5 -83 19 -5
19 -6 -3 -43 -21 -37 -21 -40 -4 -74 14 -30 22 -36 47 -36 25 0 30 -4 30 -24
0 -13 9 -35 21 -50 25 -31 69 -34 181 -10 51 10 94 13 143 8 126 -12 139 -19
306 -172 182 -167 380 -330 502 -413 120 -83 239 -137 454 -208 306 -100 315
-106 693 -476 196 -192 292 -267 421 -331 l57 -27 13 -66 14 -65 78 -38 c42
-21 77 -40 77 -43 0 -3 -42 -65 -93 -138 -51 -73 -96 -138 -101 -145 -4 -7 5
-89 20 -182 l28 -169 -23 -63 c-166 -450 -212 -647 -211 -917 1 -103 14 -188
50 -316 15 -56 24 -128 30 -244 10 -178 37 -361 76 -504 47 -173 57 -250 51
-407 -5 -154 -17 -203 -109 -465 -45 -129 -60 -155 -163 -287 -112 -144 -152
-213 -135 -233 6 -7 43 -21 81 -29 58 -14 91 -15 199 -6 74 5 142 16 158 24
17 9 45 46 77 103 66 117 97 149 207 213 114 67 192 141 202 191 7 38 -7 127
-25 161 -6 12 -52 82 -101 156 -84 127 -88 137 -83 176 8 60 42 408 56 575 21
252 -6 622 -61 849 l-11 44 152 246 c186 302 419 639 491 709 31 31 71 59 98
68 62 22 146 70 201 116 82 68 182 231 239 389 l28 75 95 19 96 19 3 166 3
166 41 92 c23 50 57 116 77 146 48 73 186 369 253 544 30 78 70 203 89 278 52
201 48 320 -20 603 -19 77 -25 131 -25 212 0 93 -2 109 -17 115 -119 47 -154
56 -188 46 l-36 -10 50 54 c116 128 130 257 49 467 l-29 78 29 42 c64 94 81
156 58 211 -25 61 -116 105 -236 113 -57 4 -71 1 -115 -23z"/>
<path d="M4618 8510 c-83 -13 -121 -34 -272 -152 -62 -48 -130 -266 -129 -418
0 -72 5 -98 32 -170 29 -74 61 -234 50 -244 -7 -7 -430 -95 -579 -121 -316
-56 -341 -65 -545 -219 -60 -45 -130 -96 -155 -113 -76 -51 -164 -158 -258
-313 -51 -85 -75 -150 -128 -355 -43 -169 -44 -170 -119 -281 -41 -60 -75
-117 -75 -125 0 -8 13 -25 30 -37 16 -13 37 -38 45 -57 8 -20 22 -38 32 -42
10 -3 29 -15 42 -25 13 -10 35 -18 49 -18 14 0 40 -12 59 -26 26 -20 42 -24
76 -22 l42 3 3 56 c3 56 4 57 36 63 38 7 42 17 52 114 6 51 3 66 -20 111 -14
29 -26 60 -26 68 0 39 93 203 144 255 67 68 92 104 127 186 l28 67 78 -3 c43
-1 106 -5 140 -8 l61 -6 -5 -37 c-9 -67 -150 -353 -210 -428 -129 -159 -268
-352 -290 -402 -49 -109 -153 -560 -153 -661 0 -25 5 -61 11 -80 6 -21 11
-148 13 -318 l1 -283 37 -32 c40 -35 45 -56 68 -272 6 -55 24 -160 41 -234 48
-208 166 -609 203 -686 66 -140 249 -337 420 -451 61 -41 136 -97 167 -126 48
-45 57 -60 62 -96 5 -38 3 -43 -11 -38 -9 3 -51 17 -92 32 -101 37 -250 39
-355 7 -182 -57 -323 -191 -392 -371 -34 -90 -43 -248 -19 -342 56 -221 219
-386 437 -441 156 -40 322 -14 465 72 58 35 167 144 186 185 15 32 22 30 39
-8 12 -27 24 -35 72 -49 52 -15 63 -16 114 -2 146 38 171 74 180 261 l5 117
-72 195 c-83 224 -89 249 -90 348 0 96 -15 128 -109 231 -43 47 -100 115 -127
151 -72 95 -171 300 -189 388 -18 90 -56 166 -131 261 l-58 74 22 161 c24 174
151 794 178 864 9 24 21 41 28 39 6 -2 54 -66 106 -143 52 -77 122 -172 155
-212 l60 -72 52 0 c45 0 61 -6 120 -46 115 -79 212 -159 367 -307 138 -131
158 -154 254 -302 58 -88 111 -174 118 -192 8 -17 29 -94 48 -170 42 -172 76
-256 173 -419 41 -71 94 -160 116 -199 49 -85 190 -384 242 -514 38 -96 98
-357 111 -485 6 -57 11 -70 36 -91 16 -14 38 -25 49 -25 13 0 25 -11 34 -33
14 -33 77 -99 129 -132 24 -16 43 -17 164 -11 141 6 207 17 225 35 17 17 13
161 -6 196 -8 17 -56 78 -105 137 -105 126 -121 152 -202 328 -81 177 -152
412 -201 666 -26 139 -68 308 -125 504 -52 177 -131 350 -267 581 -157 267
-231 422 -272 564 -61 213 -143 411 -301 730 -75 154 -99 213 -124 310 -16 66
-30 131 -30 144 0 24 118 250 203 391 21 36 62 89 90 119 59 61 193 171 209
171 5 0 34 -21 64 -46 44 -38 63 -47 106 -53 50 -6 52 -7 82 -63 25 -46 36
-58 56 -58 19 -1 46 -26 117 -113 50 -62 142 -170 203 -242 72 -84 147 -188
214 -295 57 -91 151 -239 210 -330 126 -196 191 -318 201 -380 4 -25 14 -73
22 -108 15 -59 14 -65 -5 -115 l-20 -53 24 -44 c13 -25 24 -61 24 -81 0 -40
24 -69 58 -69 25 0 38 20 47 75 11 67 14 71 52 83 30 9 41 8 65 -6 23 -13 28
-23 28 -53 0 -32 -4 -38 -30 -48 -21 -7 -39 -7 -58 0 -21 8 -29 7 -39 -7 -31
-43 -4 -80 67 -94 29 -5 54 -10 56 -10 1 0 4 -12 6 -27 3 -24 8 -28 40 -31 34
-3 39 0 95 73 95 125 153 207 153 219 -1 17 -63 80 -103 104 -20 11 -72 50
-114 85 l-78 65 -44 178 c-50 206 -140 487 -200 622 -57 130 -132 242 -200
301 -36 31 -70 73 -90 111 -35 65 -168 270 -232 357 -22 29 -39 61 -39 73 0
27 -151 328 -203 405 -102 149 -268 363 -308 396 -77 63 -181 129 -275 175
-121 58 -236 147 -230 177 3 12 8 52 11 89 l6 67 47 23 47 23 17 100 c23 130
20 187 -8 199 -19 9 -23 21 -29 95 -11 147 -24 220 -46 264 -95 188 -262 277
-461 247z"/>
<path d="M10120 7677 c-19 -7 -61 -27 -93 -46 -44 -25 -57 -38 -55 -53 3 -18
-16 -26 -152 -70 -85 -27 -162 -53 -170 -57 -8 -5 -16 -23 -17 -42 -1 -19 -10
-55 -19 -80 -17 -43 -17 -48 -2 -71 22 -34 77 -58 129 -58 68 0 310 -105 358
-154 61 -64 261 -333 327 -440 86 -138 117 -173 207 -232 144 -94 173 -121
236 -222 33 -54 90 -134 128 -180 130 -159 232 -296 282 -381 46 -77 51 -90
51 -146 0 -37 6 -69 14 -81 13 -17 12 -23 -6 -52 -27 -44 -22 -47 115 -102 79
-31 113 -50 128 -71 11 -16 43 -41 71 -55 l50 -25 -77 -45 c-88 -52 -132 -62
-395 -93 -347 -40 -588 -63 -756 -70 -148 -7 -177 -11 -218 -31 -60 -29 -161
-122 -187 -171 -29 -58 -49 -155 -49 -244 -1 -44 -7 -154 -14 -245 -11 -150
-15 -168 -38 -203 -31 -44 -32 -59 -52 -442 l-13 -260 -81 -160 c-63 -127
-110 -201 -223 -355 -167 -229 -297 -422 -305 -455 -7 -29 19 -80 52 -102 23
-15 36 -15 122 -5 165 20 157 15 352 213 159 162 181 181 239 204 76 30 154
78 181 112 48 62 28 217 -41 315 -24 34 -39 66 -36 76 2 9 59 144 126 299 127
295 146 357 197 627 20 107 25 157 20 209 l-6 68 47 -6 c27 -3 156 -12 288
-21 132 -8 244 -16 249 -17 5 -2 16 -22 25 -46 25 -69 40 -72 126 -27 l74 39
150 -22 c168 -24 251 -26 317 -10 37 10 63 8 172 -14 168 -35 239 -40 347 -28
50 6 158 16 240 21 83 6 166 15 185 20 19 5 80 35 135 67 55 31 189 96 298
144 109 48 223 102 254 121 31 18 108 82 172 142 64 59 133 122 153 138 l38
30 20 -46 c11 -25 29 -66 40 -91 l19 -45 -51 -26 c-28 -14 -60 -36 -72 -48
-11 -13 -51 -33 -88 -45 -104 -35 -128 -55 -167 -145 -39 -92 -51 -156 -29
-156 8 0 19 5 25 11 7 7 12 -2 17 -31 12 -77 61 -61 72 24 l7 51 12 -50 c15
-69 20 -75 65 -75 l39 0 -6 55 c-3 30 -3 55 -1 55 3 0 19 -7 34 -15 36 -19 68
-19 119 0 25 9 80 14 143 15 63 0 115 5 135 14 38 15 88 70 119 129 29 54 30
157 4 397 -14 131 -19 259 -20 510 -1 258 -5 343 -15 370 -8 19 -38 68 -67
109 -30 40 -59 92 -65 115 -27 95 3 287 51 331 37 33 79 110 95 174 45 172
-52 326 -273 439 -57 28 -109 52 -117 52 -8 0 -17 -11 -21 -24 l-6 -24 -56 35
c-58 34 -99 50 -108 40 -3 -3 -8 -23 -11 -45 -5 -37 -9 -42 -50 -57 -25 -10
-62 -35 -82 -55 -42 -44 -90 -135 -98 -188 -4 -24 -21 -54 -50 -86 -55 -62
-63 -89 -33 -121 21 -23 22 -26 7 -49 -22 -32 -84 -46 -232 -50 -66 -2 -156
-9 -200 -16 l-80 -12 -204 57 c-113 31 -245 73 -295 92 -50 19 -183 66 -296
104 -159 54 -231 84 -320 135 -149 85 -417 264 -451 301 -15 15 -34 51 -43 78
-27 83 -48 107 -132 154 -102 57 -138 61 -208 27 l-55 -27 -50 17 c-42 15 -52
16 -66 4 -30 -25 -14 -53 40 -73 28 -10 58 -28 67 -40 9 -12 31 -26 50 -33 18
-6 35 -19 37 -29 3 -17 -5 -17 -140 -11 l-144 8 -145 98 -145 98 2 67 c2 53 8
77 31 114 42 69 52 98 52 143 0 55 -53 109 -130 132 -62 18 -82 19 -130 3z
m667 -753 c-27 -14 -50 -24 -51 -22 0 2 -10 13 -20 26 l-19 22 69 0 69 -1 -48
-25z m182 -136 c14 -18 37 -44 51 -57 29 -28 116 -71 145 -71 11 -1 101 -64
200 -141 318 -248 466 -337 790 -471 305 -128 664 -270 747 -297 37 -13 70
-26 73 -31 10 -16 -102 -165 -137 -182 -34 -16 -35 -15 -78 13 -69 46 -88 48
-123 9 l-29 -32 -56 55 c-32 30 -77 67 -102 82 -25 16 -119 83 -210 150 -285
211 -368 257 -620 348 -226 82 -221 79 -275 149 -27 35 -147 160 -267 280
-120 119 -218 222 -218 228 0 9 13 11 42 7 31 -4 47 -13 67 -39z"/>
<path d="M23900 2460 c-229 -40 -402 -233 -417 -465 -7 -101 8 -175 55 -268
185 -372 728 -363 907 15 175 370 -142 788 -545 718z"/>
</g>
</svg>
